<svg width="49" height="55" viewBox="0 0 49 55" fill="none" xmlns="http://www.w3.org/2000/svg">
<g filter="url(#filter0_dii_52_6)">
<path d="M23.7417 39.2C23.4484 39.5733 23.0217 39.92 22.4617 40.24C21.9284 40.5333 21.3284 40.7867 20.6617 41C20.0217 41.24 19.3817 41.4267 18.7417 41.56C18.1017 41.6933 17.5684 41.76 17.1417 41.76C16.0751 41.76 15.1017 41.5067 14.2217 41C13.3684 40.52 12.6351 39.8933 12.0217 39.12C11.4084 38.3467 10.9284 37.4933 10.5817 36.56C10.2617 35.6267 10.1017 34.7067 10.1017 33.8C10.1017 32.5733 10.2084 31.5467 10.4217 30.72C10.6617 29.8933 10.9151 29.24 11.1817 28.76C11.4484 28.2533 11.6884 27.88 11.9017 27.64C12.1417 27.3733 12.2617 27.1733 12.2617 27.04C11.8084 26.64 11.4617 26.0667 11.2217 25.32C11.0084 24.5733 10.9017 23.88 10.9017 23.24C10.9017 23.0533 10.9551 22.7867 11.0617 22.44C11.1684 22.0933 11.3151 21.7467 11.5017 21.4C11.7151 21.0267 11.9551 20.7067 12.2217 20.44C12.5151 20.1733 12.8217 20.04 13.1417 20.04C12.6884 19.88 12.3151 19.64 12.0217 19.32C11.7284 19 11.5017 18.64 11.3417 18.24C11.1817 17.8133 11.0617 17.36 10.9817 16.88C10.9284 16.4 10.9017 15.9333 10.9017 15.48C10.9017 14.6 11.0751 13.7733 11.4217 13C11.7684 12.2 12.2351 11.5067 12.8217 10.92C13.4084 10.3333 14.0884 9.86666 14.8617 9.52C15.6617 9.17333 16.5017 9 17.3817 9C18.2617 9 18.9551 9.18667 19.4617 9.56C19.9951 9.90666 20.3951 10.2933 20.6617 10.72C20.9551 11.12 21.1551 11.5067 21.2617 11.88C21.3951 12.2267 21.5017 12.4 21.5817 12.4C21.6884 12.4 21.9017 12.2533 22.2217 11.96C22.5417 11.6667 22.9551 11.3467 23.4617 11C23.9684 10.6533 24.5551 10.3333 25.2217 10.04C25.9151 9.74667 26.6751 9.6 27.5017 9.6C28.4617 9.6 29.3817 9.78667 30.2617 10.16C31.1684 10.5067 31.9551 11 32.6217 11.64C33.2884 12.28 33.8217 13.04 34.2217 13.92C34.6217 14.7733 34.8217 15.6933 34.8217 16.68C34.8217 17.1333 34.7417 17.72 34.5817 18.44C34.4217 19.16 34.1951 19.8667 33.9017 20.56C33.6084 21.2533 33.2351 21.8667 32.7817 22.4C32.3551 22.9333 31.8484 23.24 31.2617 23.32C31.9817 23.5333 32.6751 23.8933 33.3417 24.4C34.0351 24.88 34.6484 25.4667 35.1817 26.16C35.7417 26.8267 36.1817 27.5467 36.5017 28.32C36.8484 29.0933 37.0217 29.8667 37.0217 30.64C37.0217 31.8133 36.8217 33.0133 36.4217 34.24C36.0217 35.44 35.4484 36.5467 34.7017 37.56C33.9817 38.5733 33.1017 39.4 32.0617 40.04C31.0484 40.68 29.9151 41 28.6617 41C28.2351 41 27.7417 40.9067 27.1817 40.72C26.6217 40.5333 26.0884 40.3333 25.5817 40.12C25.0751 39.88 24.6351 39.6667 24.2617 39.48C23.9151 39.2933 23.7417 39.2 23.7417 39.2ZM21.1017 22.72C21.1817 22.56 21.3284 22.4267 21.5417 22.32C21.7551 22.2133 21.9951 22.12 22.2617 22.04C22.5551 21.96 22.8484 21.9067 23.1417 21.88C23.4617 21.8267 23.7417 21.7867 23.9817 21.76C23.3684 21.5733 22.9017 21.3067 22.5817 20.96C22.2617 20.6133 22.0217 20.2267 21.8617 19.8C21.7017 19.3467 21.5951 18.8933 21.5417 18.44C21.4884 17.96 21.4351 17.4933 21.3817 17.04C21.2217 17.7333 20.9017 18.3333 20.4217 18.84C19.9684 19.3467 19.3951 19.6 18.7017 19.6C19.0484 19.6533 19.3684 19.8 19.6617 20.04C19.9817 20.28 20.2351 20.56 20.4217 20.88C20.6351 21.2 20.7951 21.5333 20.9017 21.88C21.0351 22.2 21.1017 22.48 21.1017 22.72ZM18.8617 29.84C19.1284 29.8933 19.4084 30.0267 19.7017 30.24C20.0217 30.4267 20.3151 30.6667 20.5817 30.96C20.8751 31.2267 21.1284 31.52 21.3417 31.84C21.5817 32.16 21.7684 32.44 21.9017 32.68C21.9017 32.1467 22.0484 31.5733 22.3417 30.96C22.6351 30.32 22.9684 29.7733 23.3417 29.32C23.2084 29.3467 23.0884 29.3733 22.9817 29.4C22.9017 29.4 22.8084 29.4 22.7017 29.4C22.0617 29.4 21.5417 29.2533 21.1417 28.96C20.7417 28.6667 20.4351 28.44 20.2217 28.28C20.0351 28.6267 19.8484 28.9333 19.6617 29.2C19.5017 29.44 19.2351 29.6533 18.8617 29.84Z" fill="white"/>
</g>
<defs>
<filter id="filter0_dii_52_6" x="0.701746" y="0.6" width="47.72" height="53.56" filterUnits="userSpaceOnUse" color-interpolation-filters="sRGB">
<feFlood flood-opacity="0" result="BackgroundImageFix"/>
<feColorMatrix in="SourceAlpha" type="matrix" values="0 0 0 0 0 0 0 0 0 0 0 0 0 0 0 0 0 0 127 0" result="hardAlpha"/>
<feOffset dx="1" dy="2"/>
<feGaussianBlur stdDeviation="5.2"/>
<feComposite in2="hardAlpha" operator="out"/>
<feColorMatrix type="matrix" values="0 0 0 0 0.308333 0 0 0 0 0.776706 0 0 0 0 1 0 0 0 1 0"/>
<feBlend mode="normal" in2="BackgroundImageFix" result="effect1_dropShadow_52_6"/>
<feBlend mode="normal" in="SourceGraphic" in2="effect1_dropShadow_52_6" result="shape"/>
<feColorMatrix in="SourceAlpha" type="matrix" values="0 0 0 0 0 0 0 0 0 0 0 0 0 0 0 0 0 0 127 0" result="hardAlpha"/>
<feOffset dx="-1" dy="-1"/>
<feGaussianBlur stdDeviation="2"/>
<feComposite in2="hardAlpha" operator="arithmetic" k2="-1" k3="1"/>
<feColorMatrix type="matrix" values="0 0 0 0 0.608333 0 0 0 0 0.873556 0 0 0 0 1 0 0 0 1 0"/>
<feBlend mode="normal" in2="shape" result="effect2_innerShadow_52_6"/>
<feColorMatrix in="SourceAlpha" type="matrix" values="0 0 0 0 0 0 0 0 0 0 0 0 0 0 0 0 0 0 127 0" result="hardAlpha"/>
<feOffset dx="1" dy="1"/>
<feGaussianBlur stdDeviation="1.6"/>
<feComposite in2="hardAlpha" operator="arithmetic" k2="-1" k3="1"/>
<feColorMatrix type="matrix" values="0 0 0 0 1 0 0 0 0 1 0 0 0 0 1 0 0 0 1 0"/>
<feBlend mode="normal" in2="effect2_innerShadow_52_6" result="effect3_innerShadow_52_6"/>
</filter>
</defs>
</svg>
